<svg xmlns="http://www.w3.org/2000/svg" data-name="Layer 1" viewBox="0 15 96 66" x="0px" y="0px">
    <path d="M29.62,66.1a1.266,1.266,0,0,1-1.267,1.266H18.36a1.267,1.267,0,1,1,0-2.533h9.993A1.267,1.267,0,0,1,29.62,66.1Zm-1.137-4.7a1.266,1.266,0,0,0-1.267-1.266H16.629a1.267,1.267,0,0,0,0,2.533H27.216A1.267,1.267,0,0,0,28.483,61.4Zm-1.608-4.7a1.266,1.266,0,0,0-1.266-1.267H14.9a1.267,1.267,0,1,0,0,2.533h10.71A1.266,1.266,0,0,0,26.875,56.7ZM66.91,68.01a2.01,2.01,0,0,1-.291,1.834,2.728,2.728,0,0,1-2.161,1.093h-18c-.791,0-1.859-.366-2.452-2.112l-1.956-5.754a2.01,2.01,0,0,1,.291-1.834,2.73,2.73,0,0,1,2.162-1.093h18c.791,0,1.859.366,2.452,2.112Zm-2.541.394-1.812-5.333a2.041,2.041,0,0,0-.171-.394H44.594l1.812,5.333a1.978,1.978,0,0,0,.171.394ZM94.5,24.377V39.946A6.865,6.865,0,0,1,87.642,46.8H85.265L78.7,72.425a9.053,9.053,0,0,1-.51,1.451,4.734,4.734,0,0,1-.812,1.8,7.2,7.2,0,0,1-5.618,2.8H14.933c-3.023,0-5.269-2.145-6.326-6.038L1.75,47.172a5.882,5.882,0,0,1,.765-5.09A4.151,4.151,0,0,1,5.9,40.47h8.892l1.227-6.207c.735-3.72,3.226-6.124,6.345-6.124H49.553a1.267,1.267,0,0,1,1.1.635l2.814,4.895V24.377a6.866,6.866,0,0,1,6.858-6.858H87.642A6.866,6.866,0,0,1,94.5,24.377ZM75.66,72.51l-5.6-16.88A6.446,6.446,0,0,0,63.919,51.4H34.075a1.266,1.266,0,0,1-.9-.373L25.186,43H5.9a1.612,1.612,0,0,0-1.374.617A3.469,3.469,0,0,0,4.2,46.508l6.857,25.271c.516,1.9,1.608,4.169,3.881,4.169H71.759a4.691,4.691,0,0,0,3.564-1.753A1.805,1.805,0,0,0,75.66,72.51Zm6.33-23.132c-2.2,1.928-5.365,2.912-9.447,2.931h-.006a1.267,1.267,0,0,1-.917-2.14,11.173,11.173,0,0,0,2.3-3.365H60.323a6.865,6.865,0,0,1-6.858-6.858v-1.2L48.82,30.672H22.365c-2.251,0-3.47,2.109-3.86,4.082l-1.13,5.716h8.336a1.263,1.263,0,0,1,.9.373L34.6,48.862H63.919a9.01,9.01,0,0,1,8.546,5.97L77.05,68.655Zm9.977-25a4.33,4.33,0,0,0-4.325-4.325H60.323A4.33,4.33,0,0,0,56,24.377V39.946a4.33,4.33,0,0,0,4.325,4.325h15.29a1.267,1.267,0,0,1,1.245,1.5,10.728,10.728,0,0,1-1.546,3.8c3.4-.514,5.65-2.023,6.838-4.573a1.267,1.267,0,0,1,1.148-.731h4.344a4.33,4.33,0,0,0,4.325-4.325Zm-9.4,3.79-3.477,3.5,3.477,3.5A3.619,3.619,0,0,1,80,41.335h-.01a3.6,3.6,0,0,1-2.558-1.067L73.982,36.8l-3.445,3.467a3.593,3.593,0,0,1-2.557,1.067h-.011A3.619,3.619,0,0,1,65.4,35.164l3.476-3.5-3.476-3.5A3.619,3.619,0,0,1,67.969,22h.011a3.593,3.593,0,0,1,2.557,1.067l3.445,3.467,3.445-3.467A3.6,3.6,0,0,1,79.985,22H80a3.62,3.62,0,0,1,2.568,6.171Zm-1.8-3.322A1.079,1.079,0,0,0,80,24.529h0a1.074,1.074,0,0,0-.768.32l-4.343,4.37a1.266,1.266,0,0,1-1.8,0l-4.343-4.37a1.077,1.077,0,0,0-.768-.32h0a1.086,1.086,0,0,0-.772,1.853l4.364,4.391a1.266,1.266,0,0,1,0,1.785L67.2,36.949A1.087,1.087,0,0,0,67.97,38.8h0a1.073,1.073,0,0,0,.767-.32l4.344-4.37a1.266,1.266,0,0,1,1.8,0l4.343,4.37a1.074,1.074,0,0,0,.768.32h0a1.086,1.086,0,0,0,.771-1.853L76.4,32.558a1.266,1.266,0,0,1,0-1.785l4.364-4.391A1.088,1.088,0,0,0,80.762,24.845Z"/>
</svg>