<svg xmlns="http://www.w3.org/2000/svg" xmlns:xlink="http://www.w3.org/1999/xlink" version="1.1" x="0px" y="0px"
     viewBox="0 4 66 58" style="enable-background:new 0 0 66 66;" xml:space="preserve"><polygon points="22.71,31.52 8.72,31.52 1.5,40.12 15.49,40.12 "/>
    <path d="M48.67,29.11c5.48-5.48,5.48-14.37,0-19.85c-5.48-5.48-14.37-5.48-19.85,0s-5.48,14.37,0,19.85S43.19,34.59,48.67,29.11z   M30.94,11.38c2.08-2.08,4.86-3.23,7.8-3.23c2.95,0,5.72,1.15,7.8,3.23c4.3,4.3,4.3,11.3,0,15.6c-2.08,2.08-4.85,3.23-7.8,3.23  c-2.95,0-5.72-1.15-7.8-3.23C26.64,22.68,26.64,15.68,30.94,11.38z"/>
    <path d="M38.74,28.22c2.41,0,4.68-0.94,6.39-2.65c3.52-3.52,3.52-9.25,0-12.78c-1.71-1.71-3.97-2.65-6.39-2.65  c-2.41,0-4.68,0.94-6.39,2.65c-3.52,3.52-3.52,9.25,0,12.78C34.06,27.28,36.33,28.22,38.74,28.22z M33.63,15.48  c-0.39-0.39-0.39-1.02,0-1.41s1.02-0.39,1.41,0l3.7,3.7l3.7-3.7c0.39-0.39,1.02-0.39,1.41,0s0.39,1.02,0,1.41l-3.7,3.7l3.7,3.7  c0.39,0.39,0.39,1.02,0,1.41c-0.2,0.2-0.45,0.29-0.71,0.29s-0.51-0.1-0.71-0.29l-3.7-3.7l-3.7,3.7c-0.2,0.2-0.45,0.29-0.71,0.29  s-0.51-0.1-0.71-0.29c-0.39-0.39-0.39-1.02,0-1.41l3.7-3.7L33.63,15.48z"/>
    <polygon points="7.72,42.12 7.72,60.85 22.71,60.85 22.71,34.63 16.42,42.12 "/>
    <path d="M47.33,32.94l-0.15-0.15c-2.51,1.57-5.41,2.42-8.45,2.42c-3.78,0-7.36-1.3-10.23-3.69h-3.8l7.22,8.59h20.52l-3.63-3.63  C47.87,35.53,47.35,34.26,47.33,32.94z"/>
    <path d="M63.59,39.64l-8.96-8.96c-0.78-0.78-1.87-1.05-2.88-0.83l-0.56-0.56c-0.35,0.42-0.71,0.84-1.11,1.23  c-0.39,0.39-0.81,0.76-1.23,1.11l0.56,0.56c-0.23,1,0.05,2.1,0.83,2.88l8.96,8.96c1.21,1.21,3.18,1.21,4.39,0  C64.8,42.82,64.8,40.85,63.59,39.64z"/>
    <path d="M24.71,34.63v26.22h26.62V42.12H31L24.71,34.63z M36.08,57.32h-7.84c-0.55,0-1-0.45-1-1c0-0.55,0.45-1,1-1h7.84  c0.55,0,1,0.45,1,1C37.08,56.87,36.63,57.32,36.08,57.32z M37.08,52.41c0,0.55-0.45,1-1,1h-7.84c-0.55,0-1-0.45-1-1s0.45-1,1-1h7.84  C36.63,51.41,37.08,51.86,37.08,52.41z"/>
</svg>