<svg xmlns="http://www.w3.org/2000/svg" xmlns:xlink="http://www.w3.org/1999/xlink" width="28px" height="56px" viewBox="0 0 62.45454544469345 120.77272727765327" fill="#e7f6fd">
  <path d="M57.85998758773886,24.08382142048016 c3.601726134979728,-1.435828078132758 5.112127417390582,-5.522415685125992 3.485541420948124,-8.835865096201587 l-5.693050987548602,-11.376176311359544 c-1.626585996442458,-3.20189661423605 -5.576866273516998,-4.638829175505833 -9.062407694465122,-3.20189661423605 c-9.875700692686351,3.9761392932907142 -18.357184816993453,9.167210037309147 -25.095898230826492,15.462763918352778 C13.24505739960287,23.53157985196756 7.668191126085873,32.03610000706159 4.647388561264165,41.42420667177578 c-3.0208025648217074,9.499659461553733 -4.647388561264165,22.421007681611528 -4.647388561264165,38.877806423286984 v33.90763230667359 c0,3.6447943521831547 3.1369872788533115,6.62689882215119 6.971082841896248,6.62689882215119 h45.66059261442042 c3.8340955630429363,0 6.971082841896248,-2.9821044699680357 6.971082841896248,-6.62689882215119 v-43.4061872850903 c0,-3.64589883532018 -3.1369872788533115,-6.62689882215119 -6.971082841896248,-6.62689882215119 H30.788949218375095 c0.23236942806320832,-11.156384167091531 3.0208025648217074,-20.10159309385861 8.13292998221229,-26.840044712849345 C43.10452890572513,31.9267561764961 49.378503463431755,27.508823628395305 57.85998758773886,24.08382142048016 z"></path>
</svg>