<svg xmlns="http://www.w3.org/2000/svg" viewBox="0 0 318.188 318.188" style="enable-background:new 0 0 318.188 318.188" xml:space="preserve">
    <path d="M283.149 52.722 232.625 2.197A7.5 7.5 0 0 0 227.321 0H40.342a7.5 7.5 0 0 0-7.5 7.5v303.188a7.5 7.5 0 0 0 7.5 7.5h237.504a7.5 7.5 0 0 0 7.5-7.5V58.025c0-1.989-.79-3.896-2.197-5.303zm-48.328-27.115 24.918 24.919h-24.918V25.607zM47.842 15h171.98v10.263H47.842V15zm222.504 288.188H47.842V40.263h171.98v17.763a7.5 7.5 0 0 0 7.5 7.5h43.024v237.662z"/>
    <path d="M201.704 147.048c-3.615-.024-7.177.154-10.693.354-1.296.087-2.579.199-3.861.31a93.594 93.594 0 0 1-3.813-4.202c-7.82-9.257-14.134-19.755-19.279-30.664 1.366-5.271 2.459-10.772 3.119-16.485 1.205-10.427 1.619-22.31-2.288-32.251-1.349-3.431-4.946-7.608-9.096-5.528-4.771 2.392-6.113 9.169-6.502 13.973-.313 3.883-.094 7.776.558 11.594.664 3.844 1.733 7.494 2.897 11.139a165.324 165.324 0 0 0 3.588 9.943 171.593 171.593 0 0 1-2.63 7.603c-2.152 5.643-4.479 11.004-6.717 16.161l-3.465 7.507c-3.576 7.855-7.458 15.566-11.814 23.02-10.163 3.585-19.283 7.741-26.857 12.625-4.063 2.625-7.652 5.476-10.641 8.603-2.822 2.952-5.69 6.783-5.941 11.024-.141 2.394.807 4.717 2.768 6.137 2.697 2.015 6.271 1.881 9.4 1.225 10.25-2.15 18.121-10.961 24.824-18.387 4.617-5.115 9.872-11.61 15.369-19.465l.037-.054c9.428-2.923 19.689-5.391 30.579-7.205 4.975-.825 10.082-1.5 15.291-1.974 3.663 3.431 7.621 6.555 11.939 9.164 3.363 2.069 6.94 3.816 10.684 5.119 3.786 1.237 7.595 2.247 11.528 2.886 1.986.284 4.017.413 6.092.335 4.631-.175 11.278-1.951 11.714-7.57.134-1.721-.237-3.229-.98-4.551-3.643-6.493-16.231-8.533-22.006-9.451-4.553-.723-9.2-.939-13.804-.935zm-75.06 20.697a170.827 170.827 0 0 1-6.232 9.041c-4.827 6.568-10.34 14.369-18.322 17.286-1.516.554-3.512 1.126-5.616 1.002-1.874-.11-3.722-.936-3.637-3.065.042-1.114.587-2.535 1.423-3.931.915-1.531 2.048-2.935 3.275-4.226 2.629-2.762 5.953-5.439 9.777-7.918 5.865-3.805 12.867-7.23 20.672-10.286-.449.71-.897 1.416-1.34 2.097zm27.222-84.26a38.169 38.169 0 0 1-.323-10.503 24.858 24.858 0 0 1 1.038-4.952c.428-1.33 1.352-4.576 2.826-4.993 2.43-.688 3.177 4.529 3.452 6.005 1.566 8.396.186 17.733-1.693 25.969-.299 1.31-.632 2.599-.973 3.883a121.219 121.219 0 0 1-1.648-4.821c-1.1-3.525-2.106-7.091-2.679-10.588zm16.683 66.28a236.508 236.508 0 0 0-25.979 5.708c.983-.275 5.475-8.788 6.477-10.555 4.721-8.315 8.583-17.042 11.358-26.197 4.9 9.691 10.847 18.962 18.153 27.214.673.749 1.357 1.489 2.053 2.22-4.094.441-8.123.978-12.062 1.61zm61.744 11.694c-.334 1.805-4.189 2.837-5.988 3.121-5.316.836-10.94.167-16.028-1.542-3.491-1.172-6.858-2.768-10.057-4.688-3.18-1.921-6.155-4.181-8.936-6.673 3.429-.206 6.9-.341 10.388-.275 3.488.035 7.003.211 10.475.664 6.511.726 13.807 2.961 18.932 7.186 1.009.833 1.331 1.569 1.214 2.207zM158.594 233.392h-16.606v47.979h15.523c7.985 0 14.183-2.166 18.591-6.498 4.408-4.332 6.613-10.501 6.613-18.509 0-7.438-2.096-13.127-6.285-17.065-4.19-3.938-10.135-5.907-17.836-5.907zm7.909 33.917c-1.838 2.287-4.726 3.43-8.664 3.43h-2.888v-26.877h3.773c3.545 0 6.187 1.061 7.926 3.183 1.739 2.123 2.609 5.382 2.609 9.78.001 4.703-.918 8.198-2.756 10.484zM129.78 237.363c-3.041-2.647-7.592-3.971-13.652-3.971H99.522v47.979h12.963v-15.917h3.643c5.819 0 10.309-1.46 13.472-4.381 3.161-2.92 4.742-7.061 4.742-12.421-.001-4.879-1.521-8.642-4.562-11.289zm-10.288 15.884c-1.149 1.094-2.697 1.641-4.644 1.641h-2.363v-11.026h3.348c3.588 0 5.382 1.619 5.382 4.857-.001 1.924-.575 3.434-1.723 4.528zM191.314 281.371h12.766v-18.017h14.374v-10.403H204.08v-9.156h15.589v-10.403h-28.355z"/>
</svg>