<svg xmlns="http://www.w3.org/2000/svg" viewBox="0 0 64 64">
    <g id="Layer_27" data-name="Layer 27">
        <path class="ultra-meta rh-ultra-dark" d="M62,41.42A20,20,0,0,0,50,23.08,10.24,10.24,0,1,0,34.7,9.78a10.72,10.72,0,0,0-5.4,0A10.24,10.24,0,1,0,14,23.08,20,20,0,0,0,2,41.42c0,3.74,3.35,6.52,9.48,7.94.07,2.27,1.39,5.33,7.09,7.43a40.28,40.28,0,0,0,13.42,2c9.37,0,20.28-2.49,20.5-9.46C58.63,48,62,45.16,62,41.42ZM43.25,9.17a6.25,6.25,0,0,1,0,12.5l-.21,0c0-.37.06-.74.06-1.11a11.1,11.1,0,0,0-4.7-9.06A6.25,6.25,0,0,1,43.25,9.17ZM39.1,20.54A7.11,7.11,0,0,1,25.47,23.4a2,2,0,0,0-.16-.41l-.06-.17c0-.06,0-.13,0-.19s0-.08-.06-.12a7.08,7.08,0,0,1,3.93-8.45l.06,0,.1-.06a7.11,7.11,0,0,1,9.86,6.56ZM14.5,15.42a6.25,6.25,0,0,1,11.09-3.95,11.1,11.1,0,0,0-4.72,9.07c0,.38,0,.75.06,1.11h-.18A6.26,6.26,0,0,1,14.5,15.42ZM6,41.42C6,33,12.89,25.67,20.75,25.67c.47,0,.95,0,1.42.07a11.18,11.18,0,0,0,2.68,3.31,21.78,21.78,0,0,0-13,16.27C8.23,44.4,6,42.94,6,41.42ZM32,54.83c-9.1,0-16.51-2.54-16.51-5.67,0-.34,0-.68.05-1v0a2,2,0,0,0,0-.51c.81-8.65,8.13-15.93,16.43-15.93,8.79,0,16.51,8.18,16.51,17.51C48.49,52.29,41.09,54.83,32,54.83Zm20.16-9.49a21.78,21.78,0,0,0-13-16.28,11.18,11.18,0,0,0,2.68-3.31c.49,0,1-.08,1.46-.08C51.11,25.67,58,33,58,41.42,58,42.95,55.76,44.41,52.14,45.34Z"/>
    </g>
</svg>