<svg class="rh-ultra-dark" xmlns="http://www.w3.org/2000/svg" width="24" height="24">
    <g>
        <path d="M12 19.3c-1.3 0-2.6-.4-3.8-1l-.3-.2-2.8.7.7-2.7-.2-.3c-.7-1.2-1.1-2.5-1.1-3.9 0-4.1 3.3-7.4 7.4-7.4 2 0 3.8.8 5.2 2.2 1.4 1.4 2.3 3.3 2.3 5.2.1 4.1-3.3 7.4-7.4 7.4z" opacity=".3"/>
        <g>
            <path d="M12 4.8c1.9 0 3.7.7 5 2.1 1.4 1.4 2.2 3.2 2.2 5 0 3.9-3.2 7.1-7.2 7.1-1.2 0-2.4-.3-3.4-.9l-.6-.3-.7.2-1.7.4.4-1.5.2-.7-.4-.7c-.6-1.1-.9-2.3-.9-3.6C4.9 8 8.1 4.8 12 4.8M12 3c-4.9 0-8.9 4-8.9 8.9 0 1.6.4 3.1 1.2 4.5L3 21l4.7-1.2c1.3.7 2.8 1.1 4.3 1.1 4.9 0 9-4 9-8.9 0-2.4-1-4.6-2.7-6.3S14.4 3 12 3z"/>
        </g>
        <path d="M16.1 13.8c-.2-.1-1.3-.7-1.5-.7-.3-.1-.4-.1-.6.1-.1.2-.6.7-.7.9-.1.1-.3.2-.5.1-1.3-.7-2.2-1.2-3-2.7-.2-.4.2-.4.7-1.2.1-.1 0-.3 0-.4-.1-.1-.5-1.2-.7-1.7-.2-.4-.4-.4-.5-.4h-.4c-.1 0-.4.1-.6.3-.3.2-.8.7-.8 1.8s.8 2.2.9 2.3c.1.1 1.6 2.4 3.8 3.4 1.4.6 2 .7 2.7.6.4-.1 1.3-.5 1.5-1.1.2-.5.2-1 .1-1.1-.1 0-.2-.1-.4-.2z"/>
    </g>
</svg>