<svg xmlns="http://www.w3.org/2000/svg" width="24px" height="24px" viewBox="0 0 24 24" version="1.1">
    <g id="surface1">
        <path style=" stroke:none;fill-rule:nonzero;fill:rgb(0%,0%,0%);fill-opacity:1;" d="M 4.9375 12.234375 L 4.9375 23.238281 L 18.859375 23.238281 L 18.859375 12.234375 L 11.898438 6.398438 Z M 11.167969 19.863281 L 8.3125 19.863281 L 8.3125 17.007812 L 11.167969 17.007812 Z M 11.167969 15.546875 L 8.3125 15.546875 L 8.3125 12.691406 L 11.167969 12.691406 Z M 12.628906 12.691406 L 15.484375 12.691406 L 15.484375 15.546875 L 12.628906 15.546875 Z M 12.628906 17.003906 L 15.484375 17.003906 L 15.484375 19.863281 L 12.628906 19.863281 Z M 12.628906 17.003906 "/>
        <path style=" stroke:none;fill-rule:nonzero;fill:rgb(0%,0%,0%);fill-opacity:1;" d="M 23.277344 9.65625 L 12.835938 0.902344 C 12.292969 0.449219 11.503906 0.449219 10.960938 0.902344 L 0.519531 9.65625 C -0.09375 10.171875 -0.175781 11.09375 0.339844 11.710938 C 0.628906 12.054688 1.042969 12.234375 1.460938 12.234375 C 1.789062 12.234375 2.125 12.121094 2.398438 11.890625 L 11.898438 3.925781 L 21.402344 11.890625 C 22.023438 12.414062 22.941406 12.328125 23.457031 11.710938 C 23.976562 11.09375 23.894531 10.171875 23.277344 9.65625 Z M 23.277344 9.65625 "/>
    </g>
</svg>
