<svg xmlns="http://www.w3.org/2000/svg" viewBox="5 2 14 20"><style type="text/css">  
	.line-st0{fill:none;}
	.line-st1{opacity:0.24;enable-background:new    ;}
</style>
<path class="line-st0" d="M0 0h24v24H0V0z"/>
<path class="line-st1" d="M12 4C9.2 4 7 6.2 7 9c0 2.9 2.9 7.2 5 9.9 2.1-2.7 5-7 5-9.9C17 6.2 14.8 4 12 4zM12 11.5c-1.4 0-2.5-1.1-2.5-2.5s1.1-2.5 2.5-2.5 2.5 1.1 2.5 2.5S13.4 11.5 12 11.5z"/><path d="M12 2C8.1 2 5 5.1 5 9c0 5.3 7 13 7 13s7-7.8 7-13C19 5.1 15.9 2 12 2zM7 9c0-2.8 2.2-5 5-5s5 2.2 5 5c0 2.9-2.9 7.2-5 9.9C9.9 16.2 7 11.9 7 9z"/><circle cx="12" cy="9" r="2.5"/></svg>
