<svg xmlns="http://www.w3.org/2000/svg" width="24" height="24" viewBox="0 0 24 24">
    <path class="ultra-meta rh-ultra-light" d="M2.6 23c-0.6 0-1-0.2-1.3-0.6C1 22.1 0.9 21.7 1 21.3L2.2 9.9C2.3 9.5 3.1 9 3.9 9h16.1c0.9 0 1.6 0.5 1.7 0.9L23 21.2c0.1 0.5 0 0.9-0.3 1.2 -0.3 0.4-0.8 0.6-1.3 0.6H2.6zM14.9 5c-0.5 0-0.8-0.1-0.9-0.3 0-0.1 0-0.2 0-0.2l0-3.3C14.2 1.1 14.6 1 15.6 1h3.9c0.7 0 1.2 0.4 1.2 0.5L21 4.6l0 0.1C20.9 4.9 20.5 5 20.1 5H14.9zM3.9 5C3.5 5 3.1 4.9 3 4.7c0 0 0-0.1 0-0.1l0.4-3.1C3.4 1.4 3.9 1 4.6 1h3.9c1 0 1.4 0.1 1.6 0.2l0 3.2C9.7 4.7 8.8 5 8.1 5H3.9z"/>
    <path class="ultra-meta rh-ultra-dark" d="M19.4 2c0.1 0 0.2 0 0.3 0l0.2 2H15l0-2c0.2 0 0.3 0 0.6 0H19.4M8.4 2C8.7 2 8.9 2 9 2l0 1.8C8.7 3.9 8.4 4 8.1 4h-4l0.2-2c0.1 0 0.2 0 0.3 0H8.4M20.1 10c0.3 0 0.6 0.1 0.7 0.2L22 21.3c0 0 0 0.1 0 0.1 0 0.2 0 0.3-0.1 0.3 -0.1 0.1-0.3 0.2-0.6 0.2H2.6c-0.3 0-0.5-0.1-0.6-0.2C2 21.7 2 21.7 2 21.5c0 0 0-0.1 0-0.1l1.2-11.1C3.3 10.1 3.6 10 3.9 10H20.1M19.4 0h-3.9C14.5 0 13 0.1 13 1l0 3.5C12.8 5.3 13.7 6 14.9 6h5.2c1.2 0 2.1-0.7 1.9-1.5l-0.4-3.1C21.5 0.6 20.5 0 19.4 0L19.4 0zM8.4 0H4.6C3.5 0 2.5 0.6 2.4 1.3L2 4.5C1.9 5.3 2.7 6 3.9 6h4.2c1.2 0 3.1-0.7 2.9-1.5L11 1C11 0.1 9.5 0 8.4 0L8.4 0zM20.1 8H3.9C2.6 8 1.4 8.8 1.3 9.8L0 21.1C-0.2 22.7 0.9 24 2.6 24h18.7c1.7 0 2.9-1.3 2.6-2.9L22.7 9.8C22.6 8.8 21.4 8 20.1 8L20.1 8z"/>
</svg>