<svg xmlns="http://www.w3.org/2000/svg" viewBox="0 2.73 24 18.55">
    <path class="st0" style="stroke:none;fill-rule:nonzero;fill:#000;fill-opacity:1" d="m23.742188 10.222656-7.074219-7.226562c-.171875-.171875-.402344-.269532-.648438-.269532H7.980469c-.246094 0-.476563.097657-.648438.269532L.257812 10.222656c-.25390575.261719-.3281245.648438-.1874995.984375.1406255.335938.4726565.554688.8359375.554688h.902344v8.605469c0 .5.40625.90625.90625.90625h18.570312c.5 0 .90625-.40625.90625-.90625v-8.605469h.902344c.363281 0 .695312-.21875.835938-.554688.140624-.335937.066406-.722656-.1875-.984375ZM18.25 13.359375v6.085937h-3.523438v-6.085937ZM6.070312 16.027344v-2.851563h4.363282v2.851563Zm0 0"/>
</svg>