<svg class="ultra-meta rh-ultra-dark" xmlns="http://www.w3.org/2000/svg" width="24" height="24" viewBox="0 0 24 24">
    <path d="M16.3 11H7.7c-0.5 0-0.9 0.3-1.1 0.8L5 16.3v6C5 22.7 5.4 23 5.8 23h0.8c0.4 0 0.8-0.3 0.8-0.7V21.5h9.3v0.8c0 0.4 0.4 0.8 0.8 0.8h0.8C18.6 23 19 22.7 19 22.3v-6l-1.6-4.5C17.2 11.3 16.8 11 16.3 11zM7.9 19.3c-0.6 0-1.1-0.5-1.1-1.1S7.3 17 7.9 17 9 17.5 9 18.1 8.5 19.3 7.9 19.3zM16.1 19.3c-0.6 0-1.1-0.5-1.1-1.1S15.5 17 16.1 17s1.1 0.5 1.1 1.1S16.7 19.3 16.1 19.3zM6.6 15.5l1.2-3.4h8.6l1.2 3.4H6.6z"/>
    <path d="M23 0h-1 -2H4 2 1C0.4 0 0 0.4 0 1v1c0 0.6 0.4 1 1 1h1v21h2V3h16v21h2V3h1c0.6 0 1-0.4 1-1V1C24 0.4 23.6 0 23 0z"/>
    <path d="M18 4H6C5.4 4 5 4.4 5 5s0.4 1 1 1h12c0.6 0 1-0.4 1-1S18.6 4 18 4z"/>
    <path d="M18 7H6C5.4 7 5 7.4 5 8s0.4 1 1 1h12c0.6 0 1-0.4 1-1S18.6 7 18 7z"/>
</svg>