<svg class="ultra-meta" xmlns="http://www.w3.org/2000/svg" width="24" height="24" viewBox="0 0 24 24">
    <path d="M20 2h-1V1c0-0.6-0.4-1-1-1s-1 0.4-1 1v1H7V1c0-0.6-0.4-1-1-1S5 0.4 5 1v1H4C1.8 2 0 3.8 0 6v14c0 2.2 1.8 4 4 4h16c2.2 0 4-1.8 4-4V6C24 3.8 22.2 2 20 2zM22 20c0 1.1-0.9 2-2 2H4c-1.1 0-2-0.9-2-2V6c0-1.1 0.9-2 2-2h1v1c0 0.6 0.4 1 1 1s1-0.4 1-1V4h10v1c0 0.6 0.4 1 1 1s1-0.4 1-1V4h1c1.1 0 2 0.9 2 2V20z"/>
    <circle cx="6" cy="12" r="2"/>
    <circle cx="18" cy="12" r="2"/>
    <circle cx="12" cy="12" r="2"/>
    <circle cx="6" cy="18" r="2"/>
    <circle cx="18" cy="18" r="2"/>
    <circle cx="12" cy="18" r="2"/>
</svg>