<svg xmlns="http://www.w3.org/2000/svg" width="24" height="24" viewBox="0 0 24 24">
    <path class="ultra-meta rh-ultra-light" d="M4.4 23L1 19.6v-1l4-2 4 2v1L5.6 23H4.4zM18.6 9l-2-4H5h11.6l2-4h1L23 4.4v1.2L19.6 9H18.6z"/>
    <path class="ultra-meta rh-ultra-dark" d="M19.2 2L22 4.8v0.3L19.2 8l-1.4-2.9L17.7 5l0.1-0.1L19.2 2M5 17.7l0.1 0.1L8 19.2 5.2 22H4.8L2 19.2l2.9-1.4L5 17.7M20 0h-2l-2 4H4v12l-4 2v2l4 4h2l4-4v-2l-4-2V6h10l2 4h2l4-4V4L20 0 20 0zM24 10h-2v2h2V10L24 10zM24 14h-2v2h2V14L24 14zM24 18h-2v2h2V18L24 18zM24 22h-2v2h2V22L24 22zM20 22h-2v2h2V22L20 22zM16 22h-2v2h2V22L16 22zM12 22h-2v2h2V22L12 22z"/>
</svg>