<svg xmlns="http://www.w3.org/2000/svg" width="24" height="24" viewBox="0 0 24 24">
    <path class="ultra-meta rh-ultra-light" d="M9 22l0 1L9 22zM23 23L23 23zM1.3 22.2l0.3-0.9L1.3 22.2C1.3 22.2 1.3 22.2 1.3 22.2zM16.3 21.2l0.3 0.9L16.3 21.2zM9 17l0 1L9 17zM4.1 13c0.4-2 2-3.6 4.1-3.9L9 8.9l0.8 0.1c2.1 0.3 3.7 1.9 4.1 3.9H4.1zM23 8c0-3.9-3.1-7-7-7 -3.9 0-7 3.1-7 7 0-3.9 3.1-7 7-7C19.9 1 23 4.1 23 8z"/>
    <path class="ultra-meta rh-ultra-dark" d="M9 10l0.7 0.1c1.2 0.2 2.2 0.9 2.8 1.9H5.5c0.6-1 1.6-1.7 2.8-1.9L9 10M16 0c-4.4 0-8 3.6-8 8 0 0 0 0.1 0 0.1C5.2 8.6 3 11 3 14h12c0-3-2.2-5.4-5-5.9V8c0-3.3 2.7-6 6-6 3.3 0 6 2.7 6 6v16h2V8C24 3.6 20.4 0 16 0L16 0zM14.3 15.6c-0.1 0-0.2 0-0.3 0.1 -0.5 0.2-0.8 0.8-0.6 1.3l0.7 0.9c0.1 0.4 0.5 0.7 0.9 0.7 0.1 0 0.2 0 0.3-0.1 0.5-0.2 0.8-0.8 0.6-1.3l-0.7-0.9C15.1 15.8 14.7 15.6 14.3 15.6L14.3 15.6zM3.7 15.6c-0.4 0-0.8 0.3-0.9 0.7l-0.7 0.9c-0.2 0.5 0.1 1.1 0.6 1.3 0.1 0 0.2 0.1 0.3 0.1 0.4 0 0.8-0.3 0.9-0.7l0.7-0.9c0.2-0.5-0.1-1.1-0.6-1.3C3.9 15.6 3.8 15.6 3.7 15.6L3.7 15.6zM9 16c-0.6 0-1 0.4-1 1v1c0 0.6 0.4 1 1 1 0.6 0 1-0.4 1-1v-1C10 16.5 9.6 16 9 16L9 16zM16.3 20.2c-0.1 0-0.2 0-0.3 0.1 -0.5 0.2-0.8 0.8-0.6 1.3l0.3 0.9c0.1 0.4 0.5 0.7 0.9 0.7 0.1 0 0.2 0 0.3-0.1 0.5-0.2 0.8-0.8 0.6-1.3l-0.3-0.9C17.1 20.5 16.7 20.2 16.3 20.2L16.3 20.2zM1.7 20.2c-0.4 0-0.8 0.3-0.9 0.7l-0.3 0.9c-0.2 0.5 0.1 1.1 0.6 1.3 0.1 0 0.2 0.1 0.3 0.1 0.4 0 0.8-0.3 0.9-0.7l0.3-0.9c0.2-0.5-0.1-1.1-0.6-1.3C1.9 20.3 1.8 20.2 1.7 20.2L1.7 20.2zM9 21c-0.6 0-1 0.4-1 1v1c0 0.6 0.4 1 1 1 0.6 0 1-0.4 1-1v-1C10 21.5 9.6 21 9 21L9 21z"/>
</svg>